<svg width="118" height="113" viewBox="0 0 118 113" fill="none" xmlns="http://www.w3.org/2000/svg">
<g id="BP Icon">
<path id="Vector" d="M18.4959 1.23715C18.6707 0.509414 19.3261 0 20.0689 0H77.9485C97.8728 0 102.286 7.67032 99.5769 18.7464C97.3339 27.9014 90.5905 33.6505 82.0266 36.4159C91.0129 38.861 97.698 44.1881 94.9599 55.3806C91.9013 67.8394 82.3324 76.4704 63.5733 76.4704H2.12536C1.07671 76.4704 0.304787 75.4952 0.552384 74.4764L18.4959 1.23715Z" fill="url(#paint0_radial_9_416)"/>
<g id="Vector_2" style="mix-blend-mode:multiply">
<path d="M32.5653 37.5365C32.7256 36.867 33.3373 36.3867 34.0364 36.3867H92.7461C111.826 36.3867 120.827 47.0408 116.384 65.1468C111.971 83.1364 97.7272 93.9069 78.6476 93.9069H44.9889C44.2898 93.9069 43.6927 94.3872 43.5179 95.0567L39.4544 111.634C39.2796 112.362 38.6242 112.872 37.8814 112.872H16.1656C15.117 112.872 14.3451 111.896 14.5927 110.878L32.5653 37.5656V37.5365Z" fill="#6F6F6F"/>
</g>
</g>
<defs>
<radialGradient id="paint0_radial_9_416" cx="0" cy="0" r="1" gradientUnits="userSpaceOnUse" gradientTransform="translate(8.49007 -15.3698) scale(216.211 216.064)">
<stop stop-color="#BBBBBB"/>
<stop offset="0.130208" stop-color="#A4A4A4"/>
<stop offset="0.322917" stop-color="#82858E"/>
<stop offset="0.59375" stop-color="#8A8A8A"/>
<stop offset="0.8125" stop-color="#5C5C5C"/>
</radialGradient>
</defs>
</svg>
